<?xml version="1.0" standalone="no"?>
<!DOCTYPE svg PUBLIC "-//W3C//DTD SVG 20010904//EN"
 "http://www.w3.org/TR/2001/REC-SVG-20010904/DTD/svg10.dtd">
<svg version="1.0" xmlns="http://www.w3.org/2000/svg"
 width="301.000000pt" height="301.000000pt" viewBox="0 0 301.000000 301.000000"
 preserveAspectRatio="xMidYMid meet">
<metadata>
Created by potrace 1.11, written by Peter Selinger 2001-2013
</metadata>
<g transform="translate(0.000000,301.000000) scale(0.100000,-0.100000)"
fill="#000000" stroke="none">
<path d="M940 2994 c-47 -17 -100 -59 -100 -80 0 -18 58 -64 80 -64 41 0 91
-114 89 -203 -1 -75 -11 -100 -44 -116 -17 -7 -56 -31 -88 -53 -35 -24 -65
-37 -76 -33 -9 3 -37 25 -61 50 -38 39 -45 53 -50 98 -4 46 -8 52 -30 55 -17
2 -39 -10 -69 -36 -39 -33 -43 -40 -33 -59 7 -12 26 -25 44 -28 64 -14 74 -45
14 -45 -55 0 -136 -100 -136 -169 0 -30 36 -71 63 -71 22 0 22 -23 1 -41 -9
-8 -28 -31 -41 -52 -23 -37 -27 -39 -61 -32 -40 7 -166 67 -193 91 -10 9 -20
28 -24 42 -9 37 -44 72 -72 72 -28 0 -80 -67 -89 -116 -10 -53 6 -64 95 -64
73 0 79 -2 141 -42 115 -76 154 -156 115 -232 -9 -16 -23 -70 -31 -120 -9 -50
-18 -94 -20 -98 -7 -11 -91 -21 -118 -14 -13 3 -45 24 -72 46 -65 53 -101 54
-143 3 -27 -33 -31 -45 -31 -100 0 -151 69 -194 178 -111 46 36 61 42 103 42
27 1 49 -3 49 -7 0 -5 4 -5 10 -2 5 3 11 1 11 -4 3 -21 4 -26 12 -38 5 -8 4
-13 -3 -13 -12 0 -4 -81 9 -90 4 -3 11 -27 15 -53 4 -27 14 -67 22 -89 9 -28
11 -45 4 -53 -20 -24 -91 -37 -163 -30 l-70 7 6 -62 c10 -111 68 -135 112 -47
15 30 68 58 115 60 40 2 42 0 57 -38 9 -22 31 -61 50 -88 18 -26 33 -51 33
-56 0 -5 12 -24 26 -41 l27 -31 -23 -24 c-16 -17 -34 -25 -57 -25 -45 0 -73
-16 -73 -40 0 -26 67 -100 91 -100 19 0 52 50 47 73 -4 21 22 57 42 57 26 0
44 -34 26 -49 -7 -6 -16 -8 -19 -4 -4 3 -7 1 -7 -6 0 -7 -6 -11 -14 -8 -16 6
-26 -20 -26 -73 0 -27 9 -43 41 -76 l42 -42 -21 -34 c-29 -47 -51 -64 -91 -72
-67 -12 -79 -45 -33 -89 30 -29 98 -67 119 -67 21 0 33 36 33 96 0 74 33 124
83 124 39 0 75 23 87 56 12 30 55 42 78 22 9 -9 46 -29 82 -45 90 -42 96 -56
80 -180 -14 -117 -26 -142 -82 -180 -44 -29 -59 -63 -39 -87 6 -7 44 -23 85
-36 62 -19 80 -21 101 -12 31 14 32 45 4 92 -18 28 -20 44 -15 89 9 77 35 129
91 180 l47 44 65 -7 c80 -8 104 -32 127 -123 22 -87 20 -115 -9 -143 -15 -14
-25 -33 -23 -45 3 -18 10 -20 78 -20 89 0 100 15 51 71 -26 29 -31 43 -31 87
0 56 23 116 60 155 15 16 32 22 64 22 38 0 48 -5 75 -36 18 -20 34 -49 38 -65
3 -16 9 -29 13 -29 8 0 30 -92 30 -128 0 -15 -9 -42 -20 -60 -40 -65 -19 -97
58 -90 58 6 122 35 122 56 0 8 -22 39 -50 68 -63 67 -67 99 -14 107 49 8 84
42 84 81 0 23 -11 41 -49 76 -63 59 -57 77 35 121 63 29 70 30 106 18 22 -7
53 -29 71 -50 74 -87 81 -100 85 -161 5 -70 16 -78 72 -53 78 35 89 74 28 100
-43 18 -92 70 -112 119 -23 56 -18 160 9 186 58 56 95 97 95 106 0 4 8 12 17
19 23 17 65 -8 56 -32 -4 -11 -2 -14 5 -9 8 5 12 -4 12 -31 0 -56 23 -83 68
-83 31 0 45 8 81 44 35 35 44 53 48 89 7 60 -16 77 -108 77 -90 0 -102 14 -69
78 28 52 48 60 170 68 91 6 154 -19 196 -77 38 -54 65 -60 91 -22 25 37 46
103 41 134 -4 31 -37 36 -84 14 -29 -14 -43 -15 -86 -5 -28 6 -67 20 -85 31
-37 23 -113 130 -113 158 0 10 9 46 21 81 11 34 19 76 17 94 l-3 31 82 3 c80
3 81 2 103 -28 46 -64 94 -26 88 69 -4 56 -23 63 -81 31 -33 -19 -49 -22 -97
-17 -89 10 -86 6 -93 115 -7 94 -6 97 19 123 38 40 79 55 110 40 47 -21 90
-14 118 19 22 27 29 29 46 20 12 -6 35 -10 53 -8 27 3 33 8 35 32 5 38 -15
116 -35 139 -23 25 -48 21 -77 -14 l-26 -31 -26 31 c-36 43 -83 43 -116 1 -73
-96 -71 -95 -117 -82 -34 11 -41 17 -41 38 0 35 -29 146 -42 162 -19 22 9 37
70 37 l57 0 -1 38 c-1 38 -43 97 -69 97 -16 0 -45 -33 -45 -52 0 -8 -8 -22
-18 -31 -18 -16 -23 -12 -106 68 -75 74 -85 88 -76 104 5 11 22 26 38 33 19 9
28 22 30 43 5 46 58 95 102 95 44 0 80 24 80 52 0 13 -21 42 -50 70 -75 73
-120 62 -120 -29 0 -40 -23 -83 -43 -83 -7 1 -28 14 -47 30 -40 35 -68 38
-101 11 -18 -14 -23 -31 -27 -80 -2 -33 -6 -61 -9 -61 -2 0 -34 20 -71 43 -37
24 -80 50 -96 58 -16 8 -31 19 -33 25 -6 20 42 78 82 98 22 12 41 29 43 38 6
32 -89 97 -123 84 -11 -4 -15 -21 -15 -61 0 -50 -9 -81 -38 -124 -8 -11 -18
-11 -61 4 -45 15 -51 20 -57 51 -4 20 -3 72 0 117 7 80 8 83 49 119 35 31 40
39 31 55 -19 31 -56 43 -124 41 -76 -3 -87 -20 -50 -71 31 -41 36 -103 15
-171 -27 -85 -31 -87 -173 -79 l-122 6 0 32 c0 21 11 44 35 72 40 47 46 90 15
118 -14 13 -42 19 -93 23 -68 4 -75 3 -105 -23 -48 -40 -44 -79 13 -135 52
-51 61 -94 23 -103 -62 -15 -134 -17 -158 -5 -33 18 -105 122 -126 184 -16 47
-16 53 -1 84 45 88 5 121 -103 84z"/>
</g>
</svg>
